<?xml version="1.0" encoding="UTF-8"?>
<svg width="159px" height="32px" viewBox="0 0 159 32" version="1.1" xmlns="http://www.w3.org/2000/svg" xmlns:xlink="http://www.w3.org/1999/xlink">
    <!-- Generator: Sketch 51.2 (57519) - http://www.bohemiancoding.com/sketch -->
    <title>Group 8</title>
    <desc>Created with Sketch.</desc>
    <defs></defs>
    <g id="贝壳线上餐饮" stroke="none" stroke-width="1" fill="none" fill-rule="evenodd">
        <g id="Desktop-HD" transform="translate(-370.000000, -14.000000)">
            <g id="Group-8" transform="translate(370.000000, 14.000000)">
                <g id="Group-6">
                    <g id="Group-4">
                        <rect id="Rectangle-Copy-3" fill="#F8C71B" x="0" y="0" width="32" height="32" rx="5"></rect>
                        <g id="Group" transform="translate(5.333333, 7.733333)" fill-rule="nonzero">
                            <g id="Group-2">
                                <path d="M21.2289947,6.50221278 C21.2289947,6.50221278 20.7094285,4.34301676 18.5458286,4.0038265 C18.5458286,4.0038265 17.6686935,0.34327436 13.6929072,1.34895322 C13.6929072,1.34895322 10.9118153,-1.68619153 7.68166387,1.34895322 C7.68166387,1.34895322 4.04805822,0.159760269 2.82594463,4.00679946 C2.82594463,4.00679946 0.0202314302,4.31950315 8.66872055e-05,7.78843306 C-0.0245268095,12.0268835 5.19607095,16.840918 10.8792535,16.840918 C16.0074661,16.75745 22.1886672,11.6524994 21.2289947,6.50221278 Z M16.4463001,4.0065292 C17.5841975,5.78842673 14.234017,13.5019647 12.1619077,14.1273721 C12.1619077,14.1273721 14.1850541,8.8916798 13.6288358,3.70896068 C13.6288358,3.70923097 15.2546833,2.13679355 16.4463001,4.0065292 Z M10.4870973,1.90354957 C10.4870973,1.90354957 13.3812235,1.00976296 12.5989365,7.77356815 C11.8166495,14.5373733 10.6857467,14.2498049 10.6857467,14.2498049 C9.07836514,13.6922355 8.47542218,5.97275166 8.7300292,3.98463723 C8.98351705,1.99517147 10.4870973,1.90354957 10.4870973,1.90354957 Z M4.93442634,4.0065292 C6.12632285,2.13328003 7.75189064,3.70923095 7.75189064,3.70923097 C7.19595205,8.89167982 9.21853889,14.1273721 9.21853889,14.1273721 C7.15006685,13.5019647 3.80072572,5.78842673 4.93442634,4.0065292 Z M2.04953316,8.01843379 C1.83857308,5.37247947 3.8312226,6.03031938 3.8312226,6.0303194 C3.97783148,9.2633026 7.27541183,13.9298039 7.2784895,13.9298039 C5.97299909,13.4635862 2.26049326,10.6643881 2.04953316,8.01843379 Z M17.5525815,6.0303194 C17.5525815,6.0303194 19.5483087,5.37247947 19.3373486,8.01843379 C19.1263885,10.6643881 15.4136029,13.4635862 14.1086721,13.9298039 C14.1083923,13.9298039 17.402895,9.2633026 17.5525815,6.0303194 Z" id="Shape-Copy-2" fill="#540800"></path>
                                <g id="餐饮-copy-3" transform="translate(9.431579, 8.421053)" fill="#FFFFFF">
                                    <path d="M0.648327344,-3.55271326e-15 C0.798713028,-3.55271326e-15 0.921806503,0.118637598 0.927654832,0.268466294 L1.29526428,9.90707477 C1.30841788,10.1465252 1.1881495,10.3736358 0.982694722,10.4973202 C0.777239942,10.6210047 0.520250222,10.6210047 0.314795442,10.4973202 C0.109340663,10.3736358 -0.0109277174,10.1465252 0.00222588007,9.90707477 L0.368999856,0.268466294 C0.374848186,0.118359109 0.498220149,-0.000278488444 0.648605833,-3.55271326e-15 L0.648048856,-3.55271326e-15 L0.648327344,-3.55271326e-15 Z" id="Path"></path>
                                    <path d="M1.94161267,-3.19744231e-14 C2.09199836,-3.19744231e-14 2.21509183,0.118637598 2.22066166,0.268466294 L2.58799263,9.90707477 C2.60208812,10.1470601 2.48206421,10.3751004 2.27626288,10.499348 C2.07046155,10.6235956 1.8127638,10.6235956 1.60696247,10.499348 C1.40116113,10.3751004 1.28113722,10.1470601 1.29523272,9.90707477 L1.66256367,0.268466294 C1.66813352,0.118359109 1.79150548,-3.19744231e-14 1.94161267,-3.19744231e-14 Z" id="Path"></path>
                                </g>
                            </g>
                        </g>
                    </g>
                </g>
                <text id="贝壳餐饮" font-family="PingFangSC-Semibold, PingFang SC" font-size="20" font-weight="500" fill="#ffffff">
                    <tspan x="39" y="23">贝壳餐饮</tspan>
                </text>
            </g>
        </g>
    </g>
</svg>